<?xml version="1.0" encoding="UTF-8" standalone="no"?>
<svg
   viewBox="0 0 512 512"
   version="1.1"
   id="svg1"
   sodipodi:docname="trowel-solid.svg"
   inkscape:version="1.3.2 (091e20e, 2023-11-25, custom)"
   xmlns:inkscape="http://www.inkscape.org/namespaces/inkscape"
   xmlns:sodipodi="http://sodipodi.sourceforge.net/DTD/sodipodi-0.dtd"
   xmlns="http://www.w3.org/2000/svg"
   xmlns:svg="http://www.w3.org/2000/svg">
  <defs
     id="defs1" />
  <sodipodi:namedview
     id="namedview1"
     pagecolor="#505050"
     bordercolor="#eeeeee"
     borderopacity="1"
     inkscape:showpageshadow="0"
     inkscape:pageopacity="0"
     inkscape:pagecheckerboard="0"
     inkscape:deskcolor="#505050"
     inkscape:zoom="3.5761719"
     inkscape:cx="255.86019"
     inkscape:cy="256"
     inkscape:window-width="3840"
     inkscape:window-height="2066"
     inkscape:window-x="-11"
     inkscape:window-y="493"
     inkscape:window-maximized="1"
     inkscape:current-layer="svg1" />
  <!--!Font Awesome Free 6.6.0 by @fontawesome - https://fontawesome.com License - https://fontawesome.com/license/free Copyright 2024 Fonticons, Inc.-->
  <path
     d="M343.9 213.4L245.3 312l65.4 65.4c7.9 7.9 11.1 19.4 8.4 30.3s-10.8 19.6-21.5 22.9l-256 80c-11.4 3.5-23.8 .5-32.2-7.9S-2.1 481.8 1.5 470.5l80-256c3.3-10.7 12-18.9 22.9-21.5s22.4 .5 30.3 8.4L200 266.7l98.6-98.6c-14.3-14.6-14.2-38 .3-52.5l95.4-95.4c26.9-26.9 70.5-26.9 97.5 0s26.9 70.5 0 97.5l-95.4 95.4c-14.5 14.5-37.9 14.6-52.5 .3z"
     id="path1"
     style="fill:#000000;fill-opacity:1" />
</svg>
